<?xml version="1.0" standalone="no"?>
<!DOCTYPE svg PUBLIC "-//W3C//DTD SVG 20010904//EN"
 "http://www.w3.org/TR/2001/REC-SVG-20010904/DTD/svg10.dtd">
<svg version="1.0" xmlns="http://www.w3.org/2000/svg"
 width="3300.000000pt" height="3300.000000pt" viewBox="0 0 3300.000000 3300.000000"
 preserveAspectRatio="xMidYMid meet">
<metadata>
Created by potrace 1.14, written by Peter Selinger 2001-2017
</metadata>
<g transform="translate(0.000000,3300.000000) scale(0.100000,-0.100000)"
fill="#000000" stroke="none">
<path d="M0 16500 l0 -16500 16500 0 16500 0 0 16500 0 16500 -16500 0 -16500
0 0 -16500z m3858 5100 l312 0 0 -1355 0 -1355 675 0 675 0 0 1355 c0 1198 2
1355 15 1355 8 0 160 0 338 0 l322 1 3 -1356 2 -1355 -340 0 -340 0 0 -340 0
-340 -22 -5 c-13 -3 -315 -4 -673 -3 l-650 3 -3 343 -2 342 -339 0 c-300 0
-340 2 -345 16 -3 9 -6 618 -6 1354 0 1417 -2 1355 45 1345 11 -3 161 -5 333
-5z m4374 0 c4 0 9 -152 10 -337 l3 -338 338 -3 337 -2 0 -340 0 -340 335 0
335 0 0 -335 0 -335 -335 0 -335 0 0 335 0 335 -340 0 -340 0 0 -1014 c0 -915
-2 -1014 -16 -1020 -20 -8 -628 -8 -648 0 -15 6 -16 165 -16 1699 0 1577 1
1694 17 1697 12 2 518 1 655 -2z m2721 0 c4 0 7 -762 7 -1694 0 -1535 -1
-1694 -16 -1700 -9 -3 -162 -6 -340 -6 l-324 0 0 329 c0 181 -3 336 -6 345 -5
14 -44 16 -329 16 -178 0 -330 3 -339 6 -14 5 -16 44 -16 326 0 262 3 322 14
334 12 11 76 14 343 16 l328 3 3 1015 2 1015 333 -2 c182 -2 335 -3 340 -3z
m4072 -337 l0 -338 -1015 -3 -1015 -2 3 -983 c2 -540 0 -997 -3 -1015 l-6 -32
-337 2 -337 3 0 1010 0 1010 337 3 337 2 6 43 c4 23 5 176 3 340 -2 163 0 298
4 300 5 1 461 1 1015 0 l1008 -3 0 -337z m14905 -4763 l0 -5100 -500 0 -500 0
0 4600 0 4600 -6215 0 -6215 0 0 500 0 500 6715 0 6715 0 0 -5100z m-14900
3065 l0 -675 -340 0 -340 0 0 -340 0 -340 -22 -5 c-13 -3 -317 -4 -676 -3
l-653 3 -2 343 -2 342 678 0 677 0 0 324 c0 178 -3 331 -6 340 -5 14 -44 16
-331 16 -268 0 -327 2 -339 14 -11 12 -14 69 -14 320 0 197 4 306 10 306 6 0
10 7 10 15 0 13 82 15 675 15 l675 0 0 -675z m-9512 -5072 l-3 -338 -672 -3
-673 -2 0 -335 0 -335 675 0 675 0 0 -340 0 -340 -672 -2 -673 -3 -3 -668 c-2
-562 -4 -671 -16 -683 -21 -21 -641 -21 -662 0 -12 13 -14 253 -14 1700 l0
1686 1020 0 1020 0 -2 -337z m2042 -1363 l0 -1700 -335 0 -335 0 0 1700 0
1700 335 0 335 0 0 -1700z m2036 1686 c11 -12 14 -69 14 -320 0 -197 -4 -306
-10 -306 -16 0 -11 -27 6 -34 9 -3 162 -6 340 -6 252 0 324 -3 324 -12 0 -7 0
-147 0 -310 0 -164 2 -309 6 -323 l6 -25 333 0 c294 0 334 -2 339 -16 3 -9 6
-162 6 -340 l0 -324 335 0 335 0 0 1015 0 1015 340 0 340 0 0 -1684 c0 -926
-3 -1691 -6 -1700 -5 -14 -44 -16 -326 -16 -262 0 -322 3 -334 14 -11 12 -14
76 -16 343 l-3 328 -332 3 -333 2 0 340 0 340 -340 0 -340 0 -5 23 c-4 13 -5
166 -3 340 l3 317 -328 0 c-293 0 -330 -2 -345 -17 -12 -12 -13 -18 -4 -21 9
-3 12 -213 12 -988 0 -602 -4 -984 -9 -984 -5 0 -13 -9 -16 -20 -6 -19 -15
-20 -321 -20 -260 0 -318 3 -330 14 -12 13 -14 253 -14 1700 l0 1686 331 0
c273 0 333 -2 345 -14z m6114 -320 c0 -295 -2 -335 -16 -340 -9 -3 -162 -6
-340 -6 l-324 0 0 -1344 c0 -739 -3 -1351 -6 -1360 -5 -14 -44 -16 -335 -16
-181 0 -330 1 -331 3 -2 1 -5 612 -8 1357 l-5 1355 -332 3 -333 2 0 340 0 340
1015 0 1015 0 0 -334z m3388 -3 l-3 -338 -672 -3 -673 -2 0 -335 0 -335 675 0
675 0 0 -340 0 -340 -672 -2 -673 -3 -3 -337 -2 -338 672 -2 673 -3 3 -320 c1
-176 0 -330 -3 -342 l-5 -23 -1004 0 c-906 0 -1004 2 -1010 16 -3 9 -6 774 -6
1700 l0 1684 1015 0 1015 0 -2 -337z m3392 -3 l0 -340 340 0 c187 0 340 -3
340 -7 0 -21 1 -640 0 -650 0 -10 -72 -13 -324 -13 -178 0 -331 3 -340 6 -14
5 -16 44 -16 335 l0 329 -675 0 -675 0 0 -1015 0 -1015 675 0 675 0 0 326 c0
269 2 328 14 340 12 12 71 14 340 14 211 0 326 -4 326 -10 0 -5 1 -157 1 -337
l0 -328 -340 -3 -341 -2 0 -329 c0 -181 -3 -336 -6 -345 -6 -14 -74 -16 -669
-16 -595 0 -663 2 -669 16 -3 9 -6 164 -6 345 l0 329 -340 0 -340 0 0 1015 0
1015 340 0 340 0 0 340 0 340 675 0 675 0 0 -340z m2722 -332 l3 -673 674 -3
c533 -2 676 0 683 10 4 7 8 311 8 676 l0 662 335 0 335 0 0 -1684 c0 -926 -3
-1691 -6 -1700 -5 -14 -44 -16 -329 -16 -285 0 -324 2 -329 16 -3 9 -6 312 -6
674 0 643 0 660 -19 670 -14 7 -237 9 -683 8 l-663 -3 -3 -668 c-2 -562 -4
-671 -16 -683 -12 -11 -71 -14 -329 -14 -278 0 -316 2 -321 16 -3 9 -6 774 -6
1700 l0 1684 335 0 335 0 2 -672z"/>
</g>
</svg>
